<svg id="Layer_1" data-name="Layer 1" xmlns="http://www.w3.org/2000/svg" viewBox="0 0 468.2 715.81"><defs><style>.cls-1{fill:#fff;}</style></defs><path class="cls-1" d="M324.41,464.71s25.85,3.32,79,3.8,84.67-2.85,84.67-2.85a519.94,519.94,0,0,1-84.91,5.46C357.14,470.17,324.41,464.71,324.41,464.71Z" transform="translate(-170.49 -70.57)"/><path class="cls-1" d="M444.55,496.06a536.17,536.17,0,0,0,58.64-3.67,188.14,188.14,0,0,0,52.26-14.91s-20.91,13.55-52.07,17A365.43,365.43,0,0,1,444.55,496.06Z" transform="translate(-170.49 -70.57)"/><path class="cls-1" d="M264.78,585.5s38.39,23.31,134.56,30c66.4,4.58,126.9-7,126.9-7s-40.68,17.34-130.73,10.81S264.78,585.5,264.78,585.5Z" transform="translate(-170.49 -70.57)"/><path class="cls-1" d="M392,661.36a382.78,382.78,0,0,0,51.43,5.3c25.93.66,65.5-6.4,65.5-6.4s-37.37,10.11-72.09,8.79S392,661.36,392,661.36Z" transform="translate(-170.49 -70.57)"/><path class="cls-1" d="M638.69,240.3c0-42.4-101.84-76.87-228.58-77.84a12,12,0,0,0-3.34,7.78,49.33,49.33,0,0,0-.19,6C521.11,176.25,614,203.7,614,237.56s-92.85,61.32-207.39,61.32c-69.33,0-130.71-10.06-168.37-25.51-.61-.25,1.46-46.77,168.37-46.77,126.24,0,167.82,24.07,170.88,26-24-17-97.84-29.07-170.88-29.07-116.28,0-156.93,21.31-173.7,34.21-6.59,5.07-5.68,10.67-6.18,10.41-17.51-9-27.52-19.42-27.52-30.54,0-29.69,71.4-54.45,166.21-60.1a33.9,33.9,0,0,1-4.53-13.67c-108.38,6.81-190.35,38.47-190.35,76.51,0,50.64,9.46,53.05,9.08,68.67-.36,15.37-2.33,36.35,1.56,55.63s9.8,37.13,6.76,54.08c-7.22,40.32.48,45.49.57,61.73.08,15.39-3.55,31.06-.32,45.54,4.87,21.89,4.71,31.36-.18,60.65-5.56,33.26,4.36,30.37,2.8,38.6-9.34,49.41,7.23,75.22,29.84,93.18a102,102,0,0,0,17.93,11.12l.22-.31s-32.05-20-36.86-47.28-7.37-40.51-3.21-52.9C202,619.13,193,613.3,193,606.89s3.36-22.46,4.56-35.28-3-35.78-3.82-49,8-26.35,7.22-35.57-6.68-41.48-4.63-52.08c4.9-25.33-6.38-61.12-8-80s.78-26.18,1.69-45.15c.33-7-5.12-11.47-7.12-21.86-2-10.21-4.87-22.38-4.87-22.38S232.6,327,400,328.16c182.25,1.23,219-50.06,219.6-50.85A76.46,76.46,0,0,0,614,309.85c.91,18.31-52.24,49.4-158.92,57.64-86.3,6.66-174.08-10.59-176.37-11,2.27.59,77.85,20.06,175.76,15.4C580.54,365.86,614,327.5,614,327.5s4.21,33.95,3,49.6-6.38,33.64-5.51,55.1,2.9,30,.87,41.76c-5.11,29.67.87,63.79.87,88.44s2,42.92,0,57.13,3.57,31.08-.29,49.29c-3.34,15.79-11.73,35.57-38.5,56.1-17.29,13.26-59.11,25.54-109,29.6-48.65,4-101.51,2.44-104.07,2.36,59.43,4.66,122.62,1.55,164.68-7.11-4.35,9.69-29.81,33.17-121.47,31.19-101.67-2.19-122.16-34-122.16-34s13.43,37.24,122.16,39.29c106.22,2,128.62-25.46,130.52-38.53,5.33-1.3,10.22-2.7,14.62-4.2,80.72-27.51,69.5-91.33,68-99.73-3.19-18.62,3.56-9.41,1.62-39.56-10.16-157.84,7.52-111,1.33-135.8-12.44-49.76,7.55-80.86,6.84-90.81-3.69-51.72.92-59.43.92-78.77S638.69,266.26,638.69,240.3Z" transform="translate(-170.49 -70.57)"/><path class="cls-1" d="M391.48,70.57s35.86,19.42,35.86,39c0,32-32.28,36.85-32.28,60.75s7.87,37.56,7.87,37.56-29.16-25.13-30.24-45.77,34.73-29.61,34.73-58.44C407.42,80.16,391.48,70.57,391.48,70.57Z" transform="translate(-170.49 -70.57)"/></svg>